<svg width="512" height="512" viewBox="0 0 512 512" fill="none" xmlns="http://www.w3.org/2000/svg">
<g clip-path="url(#clip0_0_1)">
<path opacity="0.7" d="M110.4 7.6C122.773 7.6 128.96 19.12 128.96 42.16C128.96 55.6 126.187 71.6 120.64 90.16C115.093 108.72 107.2 125.04 96.96 139.12C97.8133 139.333 104 141.253 115.52 144.88C127.253 148.507 136.64 150.853 143.68 151.92C147.52 126.96 154.667 103.173 165.12 80.56C175.573 57.9467 185.387 46.64 194.56 46.64C196.053 46.64 197.227 46.96 198.08 47.6C198.933 48.24 199.36 48.88 199.36 49.52V50.48C192.747 50.48 185.813 61.5733 178.56 83.76C171.52 105.733 166.4 129.093 163.2 153.84H166.4C177.707 153.84 185.173 149.787 188.8 141.68C189.867 139.547 190.4 137.413 190.4 135.28C190.4 133.147 189.653 131.547 188.16 130.48C186.88 129.413 185.6 128.88 184.32 128.88C185.173 125.893 187.413 124.4 191.04 124.4C196.587 124.4 199.36 128.133 199.36 135.6C199.36 142.853 196.267 148.933 190.08 153.84C184.107 158.747 176.32 161.2 166.72 161.2H162.24C161.387 170.16 160.96 177.733 160.96 183.92C160.96 198.64 163.413 206 168.32 206C166.187 210.267 163.093 212.4 159.04 212.4C147.093 212.4 141.12 201.2 141.12 178.8C141.12 172.827 141.653 166.213 142.72 158.96C134.827 157.467 124.48 154.8 111.68 150.96C99.0933 146.907 92.6933 144.88 92.48 144.88C83.0933 155.76 73.7067 161.2 64.32 161.2C54.9333 161.2 49.6 158.32 48.32 152.56C48.1067 151.707 48 150.853 48 150C48 145.733 50.56 142.32 55.68 139.76C60.5867 136.987 65.3867 135.6 70.08 135.6C74.9867 135.6 80.4267 136.027 86.4 136.88C93.44 124.933 98.88 109.467 102.72 90.48C106.773 71.4933 108.8 54 108.8 38C108.8 22 106.24 14 101.12 14C103.253 9.73334 106.347 7.6 110.4 7.6ZM55.68 150C55.68 152.987 58.6667 154.48 64.64 154.48C70.8267 154.48 76.8 150.427 82.56 142.32C79.36 141.68 76.2667 141.36 73.28 141.36C63.4667 141.36 57.7067 143.6 56 148.08C55.7867 148.72 55.68 149.36 55.68 150Z" fill="black"/>
<path opacity="0.7" d="M432.985 516.394C425.485 516.439 419.316 513.326 414.478 507.055C409.941 500.782 406.445 493.153 403.991 484.167C401.835 474.88 400.28 465.739 399.326 456.745C398.672 447.749 398.329 440.7 398.299 435.601C398.203 419.701 398.858 403.797 400.262 387.888C401.665 371.679 403.519 355.768 405.826 340.154C396.343 359.711 385.657 378.675 373.767 397.047C362.177 415.417 349.684 433.343 336.289 450.823C333.907 453.838 330.032 458.061 324.665 463.493C319.598 468.924 313.93 474.358 307.663 479.796C301.395 485.234 295.272 489.77 289.294 493.406C283.318 497.342 278.229 499.323 274.03 499.348C261.73 499.422 252.106 495.58 245.16 487.821C238.215 480.363 233.36 471.242 230.595 460.459C227.828 449.375 226.415 438.883 226.356 428.983C226.259 412.784 228.114 397.022 231.922 381.699C236.028 366.074 241.037 350.894 246.949 336.158C252.858 321.122 258.768 306.086 264.678 291.051C270.588 276.015 275.447 260.835 279.255 245.512C283.363 230.187 285.368 214.425 285.271 198.225C285.247 194.325 284.469 189.68 282.937 184.289C281.704 178.896 278.388 176.216 272.988 176.249C261.889 176.315 250.21 179.986 237.954 187.259C225.697 194.533 213.605 204.206 201.678 216.278C190.048 228.048 179.476 241.012 169.961 255.169C160.444 269.026 152.876 282.722 147.257 296.256C141.637 309.49 138.858 321.357 138.921 331.857C138.977 341.157 141.424 348.942 146.261 355.213C151.397 361.183 159.065 364.136 169.265 364.075C170.765 364.066 172.717 364.354 175.12 364.94C177.824 365.524 179.332 366.865 179.644 368.963C178.755 370.768 177.111 371.678 174.711 371.693C172.311 371.707 170.361 371.719 168.861 371.728C156.861 371.8 146.634 367.361 138.18 358.412C130.026 349.461 125.914 339.135 125.844 327.435C125.777 316.336 128.851 303.567 135.064 289.129C141.277 274.692 149.59 260.092 160.001 245.329C170.411 230.266 182.028 216.396 194.852 203.719C207.676 191.041 220.665 180.913 233.82 173.334C247.273 165.453 259.999 161.476 271.999 161.404C284.299 161.33 292.872 165.179 297.719 172.95C302.864 180.419 305.47 189.704 305.537 200.804C305.623 215.203 303.461 229.917 299.052 244.943C294.94 259.668 289.63 274.7 283.122 290.04C276.914 305.377 270.557 320.866 264.051 336.505C257.545 352.145 252.089 367.778 247.682 383.404C243.576 399.029 241.571 414.792 241.666 430.691C241.708 437.591 242.355 445.388 243.607 454.08C244.859 462.773 247.604 470.256 251.842 476.531C256.38 482.804 263.149 485.913 272.148 485.859C280.848 485.807 289.976 482.002 299.53 474.445C309.385 466.885 319.077 457.227 328.607 445.469C338.136 433.712 347.061 421.208 355.382 407.958C364.001 394.406 371.575 381.76 378.104 370.021C384.632 357.981 389.524 348.352 392.781 341.132C395.741 334.514 399.454 328.192 403.917 322.165C408.381 316.138 411.794 309.967 414.156 303.653C415.927 298.842 417.245 293.434 418.109 287.429C418.973 281.424 419.99 275.867 421.159 270.76C422.623 264.751 424.678 257.239 427.324 248.223C430.268 238.905 433.511 229.435 437.053 219.814C440.594 209.892 444.439 200.719 448.588 192.294C452.737 183.869 456.9 177.694 461.077 173.769C464.059 170.751 467.65 169.229 471.85 169.204C476.05 169.179 478.756 170.212 479.968 172.305C481.479 174.096 482.247 177.092 482.272 181.291C482.332 191.191 480.444 201.553 476.609 212.376C472.772 222.899 468.036 233.578 462.401 244.412C457.066 255.244 451.579 265.777 445.941 276.011C440.602 286.244 436.31 295.87 433.064 304.889C431.886 308.496 430.423 314.655 428.675 323.366C426.927 332.077 425.188 342.137 423.456 353.548C422.025 364.957 420.593 376.366 419.162 387.774C417.73 399.183 416.592 409.39 415.746 418.395C414.9 427.401 414.489 434.003 414.515 438.203C414.533 441.203 414.713 446.302 415.057 453.5C415.698 460.396 416.642 467.741 417.889 475.534C419.434 483.024 421.573 489.462 424.305 494.845C427.338 500.227 431.104 502.905 435.604 502.878C440.104 502.851 444.293 501.025 448.171 497.402C452.051 494.079 455.481 490.758 458.461 487.44C461.441 484.122 463.981 482.457 466.081 482.444C468.181 482.432 469.239 483.625 469.253 486.025C469.273 489.325 466.897 493.389 462.126 498.218C457.355 503.047 452.13 507.278 446.452 510.913C440.774 514.547 436.285 516.374 432.985 516.394Z" fill="black"/>
</g>
<defs>
<clipPath id="clip0_0_1">
<rect width="512" height="512" fill="white"/>
</clipPath>
</defs>
</svg>
