<svg width="512" height="512" viewBox="0 0 512 512" fill="none" xmlns="http://www.w3.org/2000/svg">
<rect width="512" height="512" fill="#1E1E1E"/>
<g clip-path="url(#clip0_0_1)">
<path d="M130.8 37.2C140.08 37.2 144.72 45.84 144.72 63.12C144.72 73.2 142.64 85.2 138.48 99.12C134.32 113.04 128.4 125.28 120.72 135.84C121.36 136 126 137.44 134.64 140.16C143.44 142.88 150.48 144.64 155.76 145.44C158.64 126.72 164 108.88 171.84 91.92C179.68 74.96 187.04 66.48 193.92 66.48C195.04 66.48 195.92 66.72 196.56 67.2C197.2 67.68 197.52 68.16 197.52 68.64V69.36C192.56 69.36 187.36 77.68 181.92 94.32C176.64 110.8 172.8 128.32 170.4 146.88H172.8C181.28 146.88 186.88 143.84 189.6 137.76C190.4 136.16 190.8 134.56 190.8 132.96C190.8 131.36 190.24 130.16 189.12 129.36C188.16 128.56 187.2 128.16 186.24 128.16C186.88 125.92 188.56 124.8 191.28 124.8C195.44 124.8 197.52 127.6 197.52 133.2C197.52 138.64 195.2 143.2 190.56 146.88C186.08 150.56 180.24 152.4 173.04 152.4H169.68C169.04 159.12 168.72 164.8 168.72 169.44C168.72 180.48 170.56 186 174.24 186C172.64 189.2 170.32 190.8 167.28 190.8C158.32 190.8 153.84 182.4 153.84 165.6C153.84 161.12 154.24 156.16 155.04 150.72C149.12 149.6 141.36 147.6 131.76 144.72C122.32 141.68 117.52 140.16 117.36 140.16C110.32 148.32 103.28 152.4 96.24 152.4C89.2 152.4 85.2 150.24 84.24 145.92C84.08 145.28 84 144.64 84 144C84 140.8 85.92 138.24 89.76 136.32C93.44 134.24 97.04 133.2 100.56 133.2C104.24 133.2 108.32 133.52 112.8 134.16C118.08 125.2 122.16 113.6 125.04 99.36C128.08 85.12 129.6 72 129.6 60C129.6 48 127.68 42 123.84 42C125.44 38.8 127.76 37.2 130.8 37.2ZM89.76 144C89.76 146.24 92 147.36 96.48 147.36C101.12 147.36 105.6 144.32 109.92 138.24C107.52 137.76 105.2 137.52 102.96 137.52C95.6 137.52 91.28 139.2 90 142.56C89.84 143.04 89.76 143.52 89.76 144Z" fill="white"/>
<path d="M406.206 475.096C399.539 475.136 394.056 472.369 389.756 466.794C385.722 461.219 382.615 454.437 380.433 446.45C378.517 438.195 377.135 430.07 376.287 422.074C375.706 414.078 375.401 407.813 375.374 403.28C375.289 389.147 375.871 375.009 377.119 360.868C378.366 346.461 380.014 332.317 382.064 318.438C373.635 335.822 364.137 352.68 353.568 369.01C343.266 385.339 332.161 401.273 320.254 416.811C318.137 419.49 314.693 423.245 309.922 428.073C305.417 432.9 300.38 437.731 294.809 442.564C289.238 447.398 283.795 451.431 278.481 454.663C273.169 458.161 268.646 459.922 264.912 459.944C253.979 460.01 245.425 456.595 239.25 449.698C233.077 443.069 228.762 434.961 226.304 425.376C223.845 415.524 222.589 406.198 222.536 397.398C222.449 382.998 224.099 368.988 227.484 355.367C231.133 341.478 235.586 327.985 240.841 314.886C246.094 301.521 251.347 288.156 256.6 274.791C261.853 261.426 266.172 247.933 269.557 234.312C273.209 220.69 274.991 206.679 274.905 192.279C274.884 188.813 274.192 184.684 272.83 179.892C271.735 175.098 268.787 172.716 263.987 172.745C254.121 172.804 243.74 176.066 232.845 182.532C221.951 188.997 211.202 197.596 200.6 208.326C190.262 218.788 180.865 230.312 172.407 242.896C163.947 255.214 157.22 267.388 152.226 279.418C147.23 291.182 144.76 301.73 144.816 311.063C144.866 319.33 147.04 326.25 151.341 331.824C155.906 337.13 162.722 339.756 171.788 339.702C173.122 339.694 174.857 339.95 176.993 340.47C179.396 340.989 180.737 342.181 181.015 344.046C180.224 345.651 178.762 346.46 176.629 346.473C174.496 346.485 172.763 346.496 171.429 346.504C160.763 346.568 151.672 342.622 144.158 334.667C136.91 326.711 133.255 317.533 133.192 307.133C133.133 297.266 135.865 285.916 141.388 273.083C146.911 260.25 154.299 247.272 163.554 234.149C172.807 220.76 183.133 208.431 194.532 197.162C205.932 185.894 217.478 176.891 229.171 170.154C241.129 163.148 252.441 159.614 263.108 159.55C274.041 159.484 281.662 162.905 285.97 169.813C290.543 176.452 292.859 184.705 292.919 194.571C292.996 207.371 291.074 220.449 287.154 233.807C283.5 246.895 278.78 260.257 272.995 273.892C267.477 287.526 261.826 301.293 256.043 315.195C250.259 329.097 245.409 342.993 241.493 356.883C237.843 370.772 236.06 384.783 236.145 398.916C236.182 405.049 236.757 411.979 237.87 419.706C238.983 427.433 241.423 434.085 245.19 439.662C249.224 445.238 255.241 448.002 263.24 447.954C270.974 447.908 279.087 444.526 287.58 437.808C296.34 431.088 304.955 422.503 313.426 412.052C321.896 401.601 329.83 390.486 337.226 378.708C344.887 366.662 351.619 355.421 357.423 344.986C363.226 334.285 367.575 325.725 370.469 319.308C373.101 313.425 376.4 307.805 380.368 302.448C384.336 297.091 387.37 291.606 389.47 285.993C391.044 281.717 392.215 276.909 392.983 271.571C393.751 266.233 394.655 261.295 395.694 256.755C396.995 251.414 398.822 244.736 401.174 236.722C403.791 228.439 406.674 220.022 409.822 211.469C412.969 202.65 416.387 194.496 420.076 187.007C423.764 179.518 427.464 174.029 431.177 170.54C433.827 167.858 437.019 166.505 440.753 166.483C444.486 166.46 446.891 167.379 447.969 169.239C449.312 170.831 449.995 173.494 450.017 177.227C450.07 186.027 448.392 195.237 444.983 204.858C441.573 214.212 437.363 223.704 432.354 233.334C427.612 242.963 422.735 252.326 417.723 261.423C412.977 270.518 409.162 279.074 406.277 287.092C405.229 290.298 403.929 295.773 402.375 303.516C400.822 311.258 399.275 320.201 397.736 330.344C396.464 340.485 395.191 350.626 393.919 360.767C392.647 370.909 391.634 379.982 390.882 387.986C390.131 395.991 389.766 401.86 389.788 405.593C389.804 408.26 389.965 412.792 390.27 419.19C390.84 425.32 391.679 431.849 392.788 438.776C394.161 445.434 396.062 451.156 398.491 455.942C401.186 460.726 404.534 463.106 408.534 463.081C412.534 463.057 416.257 461.435 419.705 458.214C423.154 455.26 426.203 452.308 428.852 449.359C431.501 446.41 433.759 444.93 435.625 444.918C437.492 444.907 438.432 445.968 438.444 448.102C438.462 451.035 436.35 454.648 432.109 458.94C427.868 463.232 423.224 466.993 418.177 470.224C413.13 473.454 409.139 475.078 406.206 475.096Z" fill="white"/>
</g>
<defs>
<clipPath id="clip0_0_1">
<rect width="512" height="512" fill="white"/>
</clipPath>
</defs>
</svg>
